<?xml version="1.0" encoding="utf-8"?>
<!-- Generator: Adobe Illustrator 24.3.0, SVG Export Plug-In . SVG Version: 6.00 Build 0)  -->
<svg version="1.1" id="图层_1" xmlns="http://www.w3.org/2000/svg" xmlns:xlink="http://www.w3.org/1999/xlink" x="0px" y="0px"
	 viewBox="0 0 128 128" style="enable-background:new 0 0 128 128;" xml:space="preserve">
<style type="text/css">
	.st0{fill:#409EFF;}
	.st1{fill:#FFFFFF;}
</style>
<rect class="st0" width="128" height="128"/>
<g>
	<path class="st1" d="M64.5,59.9c-0.6,0-1.2-0.2-1.6-0.7L52.1,48.4c-0.9-0.9-0.9-2.3,0-3.2s2.3-0.9,3.2,0l9.2,9.2l9.2-9.2
		c0.9-0.9,2.3-0.9,3.2,0c0.9,0.9,0.9,2.3,0,3.2L66,59.2C65.6,59.6,65,59.9,64.5,59.9z M78.8,65.4H50c-1.2,0-2.2-1-2.2-2.2
		s1-2.2,2.2-2.2h28.8c1.2,0,2.2,1,2.2,2.2S80.1,65.4,78.8,65.4z M78.8,76.5H50c-1.2,0-2.2-1-2.2-2.2s1-2.2,2.2-2.2h28.8
		c1.2,0,2.2,1,2.2,2.2S80.1,76.5,78.8,76.5z"/>
	<path class="st1" d="M64.5,55.4c-1.2,0-2.2,1-2.2,2.2v28.2c0,1.2,1,2.2,2.2,2.2c1.2,0,2.2-1,2.2-2.2V57.6
		C66.7,56.4,65.7,55.4,64.5,55.4z"/>
	<path class="st1" d="M64.5,24.8c-21.8,0-39.6,17.8-39.6,39.6s17.8,39.6,39.6,39.6c1.2,0,2.2-1,2.2-2.2s-1-2.2-2.2-2.2
		c-19.4,0-35.1-15.8-35.1-35.1s15.8-35.1,35.1-35.1S99.6,45,99.6,64.4c0,7.3-2.2,14.4-6.5,20.4v-6.5c0-1.2-1-2.2-2.2-2.2
		s-2.2,1-2.2,2.2v12.5c0,0.9,0.6,1.7,1.4,2c0.8,0.4,1.8,0.1,2.4-0.5c7.5-7.5,11.6-17.4,11.6-28C104,42.6,86.3,24.8,64.5,24.8z"/>
</g>
</svg>
